/* XPM */
/* This file is a part of the NsCDE - Not so Common Desktop Environment */
static char *format_indent_more[] = {
/* columns rows colors chars-per-pixel */
"32 32 4 1 ",
"@ s foreground m white c #ffffffffffff",
". s bottomShadowColor m black c #4a38441b45a5",
"X s background m black c #91ff85f98900",
"o s topShadowColor m white c #cef4c998caf2",
/* pixels */
"ooooooooooooooooooooooooooooooo.",
"oooooooooooooooooooooooooooooo..",
"ooXXXXXXXXXXXXXXXXXXXXXXXXXXXX..",
"ooXXXXXXXXXXXXXXXXXXXXXXXXXXXX..",
"ooXXXXXXXXXXXXXXXXXXXXXXXXXXXX..",
"ooXXX@@@@@@@@@@@@@@@@@@@@@@XXX..",
"ooXXX@@@@@@@@@@@@@@@@@@@@@@XXX..",
"ooXXXXXXXXXXXXXXXXXXXXXXXXXXXX..",
"ooXXX@@XXXXXXXXXXXXXXXXXXXXXXX..",
"ooXXX@@@@XXXXXX@@@@@@@@@@@@XXX..",
"ooXXXXX@@@@XXXX@@@@@@@@@@@@XXX..",
"ooXXXXXXX@@@@XXXXXXXXXXXXXXXXX..",
"ooXXXXX@@@@XXXXXXXXXXXXXXXXXXX..",
"ooXXX@@@@XXXXXX@@@@@@@@@@@@XXX..",
"ooXXX@@XXXXXXXX@@@@@@@@@@@@XXX..",
"ooXXXXXXXXXXXXXXXXXXXXXXXXXXXX..",
"ooXXXXXXXXXXXXXXXXXXXXXXXXXXXX..",
"ooXXX@@@@@@@@@@@@@@@@@@@@@@XXX..",
"ooXXX@@@@@@@@@@@@@@@@@@@@@@XXX..",
"ooXXXXXXXXXXXXXXXXXXXXXXXXXXXX..",
"ooXXXXXXXXXXXXXXXXXXXXXXXXXXXX..",
"ooXXX@@@@@@@@@@@@@@@@@@@@@@XXX..",
"ooXXX@@@@@@@@@@@@@@@@@@@@@@XXX..",
"ooXXXXXXXXXXXXXXXXXXXXXXXXXXXX..",
"ooXXXXXXXXXXXXXXXXXXXXXXXXXXXX..",
"ooXXX@@@@@@@@@@@@@@@@@@@@@@XXX..",
"ooXXX@@@@@@@@@@@@@@@@@@@@@@XXX..",
"ooXXXXXXXXXXXXXXXXXXXXXXXXXXXX..",
"ooXXXXXXXXXXXXXXXXXXXXXXXXXXXX..",
"ooXXXXXXXXXXXXXXXXXXXXXXXXXXXX..",
"o...............................",
"................................"
};
