/* XPM */
/* This file is a part of the NsCDE - Not so Common Desktop Environment */
static char *format_text_underline[] = {
/* columns rows colors chars-per-pixel */
"32 32 4 1 ",
"@ s foreground m white c #ffffffffffff",
". s bottomShadowColor m black c #4a38441b45a5",
"X s background m black c #91ff85f98900",
"o s topShadowColor m white c #cef4c998caf2",
/* pixels */
"ooooooooooooooooooooooooooooooo.",
"oooooooooooooooooooooooooooooo..",
"ooXXXXXXXXXXXXXXXXXXXXXXXXXXXX..",
"ooXXXXXXXXXXXXXXXXXXXXXXXXXXXX..",
"ooXXXXXX@@@XXXXXXXXXX@@@XXXXXX..",
"ooXXXXXX@@@XXXXXXXXXX@@@XXXXXX..",
"ooXXXXXX@@@XXXXXXXXXX@@@XXXXXX..",
"ooXXXXXX@@@XXXXXXXXXX@@@XXXXXX..",
"ooXXXXXX@@@XXXXXXXXXX@@@XXXXXX..",
"ooXXXXXX@@@XXXXXXXXXX@@@XXXXXX..",
"ooXXXXXX@@@XXXXXXXXXX@@@XXXXXX..",
"ooXXXXXX@@@XXXXXXXXXX@@@XXXXXX..",
"ooXXXXXX@@@XXXXXXXXXX@@@XXXXXX..",
"ooXXXXXX@@@XXXXXXXXXX@@@XXXXXX..",
"ooXXXXXX@@@XXXXXXXXXX@@@XXXXXX..",
"ooXXXXXX@@@XXXXXXXXXX@@@XXXXXX..",
"ooXXXXXX@@@XXXXXXXXXX@@@XXXXXX..",
"ooXXXXXX@@@XXXXXXXXXX@@@XXXXXX..",
"ooXXXXXX@@@XXXXXXXXXX@@@XXXXXX..",
"ooXXXXXX@@@XXXXXXXXX@@@@XXXXXX..",
"ooXXXXXXX@@@XXXXXXXX@@@XXXXXXX..",
"ooXXXXXXX@@@@XXXXXX@@@@XXXXXXX..",
"ooXXXXXXXX@@@@@@@@@@@@XXXXXXXX..",
"ooXXXXXXXXXX@@@@@@@@XXXXXXXXXX..",
"ooXXXXXXXXXXXXXXXXXXXXXXXXXXXX..",
"ooXXXXXXXXXXXXXXXXXXXXXXXXXXXX..",
"ooXXXXX@@@@@@@@@@@@@@@@@@XXXXX..",
"ooXXXXX@@@@@@@@@@@@@@@@@@XXXXX..",
"ooXXXXXXXXXXXXXXXXXXXXXXXXXXXX..",
"ooXXXXXXXXXXXXXXXXXXXXXXXXXXXX..",
"o...............................",
"................................"
};
