/* XPM */
/* This file is a part of the NsCDE - Not so Common Desktop Environment */
static char *format_text_bold[] = {
/* columns rows colors chars-per-pixel */
"32 32 4 1 ",
"@ s foreground m white c #ffffffffffff",
". s bottomShadowColor m black c #4a38441b45a5",
"X s background m black c #91ff85f98900",
"o s topShadowColor m white c #cef4c998caf2",
/* pixels */
"ooooooooooooooooooooooooooooooo.",
"oooooooooooooooooooooooooooooo..",
"ooXXXXXXXXXXXXXXXXXXXXXXXXXXXX..",
"ooXXXXXXXXXXXXXXXXXXXXXXXXXXXX..",
"ooXXXXXXXXXXXXXXXXXXXXXXXXXXXX..",
"ooXXXXXXXXXXXXXXXXXXXXXXXXXXXX..",
"ooXXXXXX@@@@@@@@@@@@XXXXXXXXXX..",
"ooXXXXXX@@@@@@@@@@@@@@XXXXXXXX..",
"ooXXXXXX@@@@@@@@@@@@@@@XXXXXXX..",
"ooXXXXXX@@@@@@@@@@@@@@@@XXXXXX..",
"ooXXXXXX@@@@@XXXXX@@@@@@XXXXXX..",
"ooXXXXXX@@@@@XXXXXX@@@@@XXXXXX..",
"ooXXXXXX@@@@@XXXXXX@@@@@XXXXXX..",
"ooXXXXXX@@@@@XXXXX@@@@@@XXXXXX..",
"ooXXXXXX@@@@@@@@@@@@@@@XXXXXXX..",
"ooXXXXXX@@@@@@@@@@@@@@XXXXXXXX..",
"ooXXXXXX@@@@@@@@@@@@@@@XXXXXXX..",
"ooXXXXXX@@@@@@@@@@@@@@@@XXXXXX..",
"ooXXXXXX@@@@@XXXXXX@@@@@@XXXXX..",
"ooXXXXXX@@@@@XXXXXXX@@@@@XXXXX..",
"ooXXXXXX@@@@@XXXXXXX@@@@@XXXXX..",
"ooXXXXXX@@@@@XXXXXX@@@@@@XXXXX..",
"ooXXXXXX@@@@@@@@@@@@@@@@@XXXXX..",
"ooXXXXXX@@@@@@@@@@@@@@@@XXXXXX..",
"ooXXXXXX@@@@@@@@@@@@@@@XXXXXXX..",
"ooXXXXXX@@@@@@@@@@@@@XXXXXXXXX..",
"ooXXXXXXXXXXXXXXXXXXXXXXXXXXXX..",
"ooXXXXXXXXXXXXXXXXXXXXXXXXXXXX..",
"ooXXXXXXXXXXXXXXXXXXXXXXXXXXXX..",
"ooXXXXXXXXXXXXXXXXXXXXXXXXXXXX..",
"o...............................",
"................................"
};
