/* XPM */
/* This file is a part of the NsCDE - Not so Common Desktop Environment */
static char *_2x32_media_skip_backward_rtl[] = {
/* columns rows colors chars-per-pixel */
"32 32 4 1 ",
"@ s foreground m white c #ffffffffffff",
". s bottomShadowColor m black c #4a38441b45a5",
"X s background m black c #91ff85f98900",
"o s topShadowColor m white c #cef4c998caf2",
/* pixels */
"oooooooooooooooooooooooooooooooo",
"ooooooooooooooooooooooooooooooo.",
"ooXXXXXXXXXXXXXXXXXXXXXXXXXXXX..",
"ooXXXXXXXXXXXXXXXXXXXXXXXXXXXX..",
"ooXXXXXXXXXXXXXXXXXXXXXXXXXXXX..",
"ooXXXXXXXXXXXXXXXXXXXXXXXXXXXX..",
"ooXXXXXXXXXXXXXXXXXXXXXXXXXXXX..",
"ooXXXXXXXXXXXXXXXXXXXXXXXXXXXX..",
"ooXXXXXXXXXXXXXXXXXXXXXXXXXXXX..",
"ooXXXXXXXXXXXXXXXXXXXXXXX@@@XX..",
"ooXX@@XXXXXXXX@@XXXXXXXXX@@@XX..",
"ooXX@@@@XXXXXX@@@@XXXXXXX@@@XX..",
"ooXX@@@@@@XXXX@@@@@@XXXXX@@@XX..",
"ooXX@@@@@@@@XX@@@@@@@@XXX@@@XX..",
"ooXX@@@@@@@@@@@@@@@@@@@@X@@@XX..",
"ooXX@@@@@@@@@@@@@@@@@@@@@@@@XX..",
"ooXX@@@@@@@@@@@@@@@@@@@@X@@@XX..",
"ooXX@@@@@@@@XX@@@@@@@@XXX@@@XX..",
"ooXX@@@@@@XXXX@@@@@@XXXXX@@@XX..",
"ooXX@@@@XXXXXX@@@@XXXXXXX@@@XX..",
"ooXX@@XXXXXXXX@@XXXXXXXXX@@@XX..",
"ooXXXXXXXXXXXXXXXXXXXXXXX@@@XX..",
"ooXXXXXXXXXXXXXXXXXXXXXXXXXXXX..",
"ooXXXXXXXXXXXXXXXXXXXXXXXXXXXX..",
"ooXXXXXXXXXXXXXXXXXXXXXXXXXXXX..",
"ooXXXXXXXXXXXXXXXXXXXXXXXXXXXX..",
"ooXXXXXXXXXXXXXXXXXXXXXXXXXXXX..",
"ooXXXXXXXXXXXXXXXXXXXXXXXXXXXX..",
"ooXXXXXXXXXXXXXXXXXXXXXXXXXXXX..",
"ooXXXXXXXXXXXXXXXXXXXXXXXXXXXX..",
"oo..............................",
"o..............................."
};
