/* XPM */
/* This file is a part of the NsCDE - Not so Common Desktop Environment */
static char *window_close_32x32[] = {
/* columns rows colors chars-per-pixel */
"32 32 3 1 ",
".      s None m None c None",
"@      s bottomShadowColor m black c #4a38441b45a5",
"X      s topShadowColor m black c #cef4c998caf2",
/* pixels */
"XXXXXXXXXXXXXXXXXXXXXXXXXXXXXXX@",
"X..............................@",
"X..............................@",
"X....@@..................XX@...@",
"X...XX@@................XXX@...@",
"X..XXXX@@..............XXXX@...@",
"X...XXXX@@............XXXX@@...@",
"X....XXXX@@..........XXXX@@....@",
"X.....XXXX@@........XXXX@@.....@",
"X......XXXX@@......XXXX@@......@",
"X.......XXXX@@....XXXX@@.......@",
"X........XXXX@@..XXXX@@........@",
"X.........XXXX@@XXXX@@.........@",
"X..........XXXXXXXX@@..........@",
"X...........XXXXXX@@...........@",
"X............XXXX@@............@",
"X...........XXXXXX@@...........@",
"X..........XXXXXXXX@@..........@",
"X.........XXXX@@XXXX@@.........@",
"X........XXXX@@..XXXX@@........@",
"X.......XXXX@@....XXXX@@.......@",
"X......XXXX@@......XXXX@@......@",
"X.....XXXX@@........XXXX@@.....@",
"X....XXXX@@..........XXXX@@....@",
"X...XXXX@@............XXXX@@...@",
"X..XXXX@@..............XXXX@...@",
"X...XX@@................XXX@...@",
"X....@@..................XX@...@",
"X..............................@",
"X..............................@",
"X..............................@",
"X@@@@@@@@@@@@@@@@@@@@@@@@@@@@@@@"
};
