/* XPM */
/* This file is a part of the NsCDE - Not so Common Desktop Environment */
static char *zoom_fit_best_32x32[] = {
/* columns rows colors chars-per-pixel */
"32 32 4 1 ",
".      s None m None c None",
"@      s bottomShadowColor m black c #4a38441b45a5",
"X      s topShadowColor m black c #cef4c998caf2",
"o      s foreground m black c #ffffffffffff",
/* pixels */
"XXXXXXXXXXXXXXXXXXXXXXXXXXXXXXXX",
"XXXXXXXXXXXXXXXXXXXXXXXXXXXXXXXX",
"XX............................@@",
"XX............................@@",
"XX............................@@",
"XX...oooooooo......oooooooo...@@",
"XX...oooooooo......oooooooo...@@",
"XX...oo..................oo...@@",
"XX...oo..................oo...@@",
"XX...oo..................oo...@@",
"XX...oo..................oo...@@",
"XX...oo..................oo...@@",
"XX...oo..................oo...@@",
"XX............................@@",
"XX............................@@",
"XX............................@@",
"XX............................@@",
"XX............................@@",
"XX............................@@",
"XX...oo..................oo...@@",
"XX...oo..................oo...@@",
"XX...oo..................oo...@@",
"XX...oo..................oo...@@",
"XX...oo..................oo...@@",
"XX...oo..................oo...@@",
"XX...oooooooo......oooooooo...@@",
"XX...oooooooo......oooooooo...@@",
"XX............................@@",
"XX............................@@",
"XX............................@@",
"XX@@@@@@@@@@@@@@@@@@@@@@@@@@@@@@",
"XX@@@@@@@@@@@@@@@@@@@@@@@@@@@@@@"
};
