/* XPM */
/* This file is a part of the NsCDE - Not so Common Desktop Environment */
static char *format_indent_more[] = {
/* columns rows colors chars-per-pixel */
"48 48 4 1 ",
"@ s foreground m white c #ffffffffffff",
". s bottomShadowColor m black c #4a38441b45a5",
"X s background m black c #91ff85f98900",
"o s topShadowColor m white c #cef4c998caf2",
/* pixels */
"oooooooooooooooooooooooooooooooooooooooooooooooo",
"ooooooooooooooooooooooooooooooooooooooooooooooo.",
"ooXXXXXXXXXXXXXXXXXXXXXXXXXXXXXXXXXXXXXXXXXXXX..",
"ooXXXXXXXXXXXXXXXXXXXXXXXXXXXXXXXXXXXXXXXXXXXX..",
"ooXXXXXXXXXXXXXXXXXXXXXXXXXXXXXXXXXXXXXXXXXXXX..",
"ooXXXXX@@@@@@@@@@@@@@@@@@@@@@@@@@@@@@@@@@XXXXX..",
"ooXXXXX@@@@@@@@@@@@@@@@@@@@@@@@@@@@@@@@@@XXXXX..",
"ooXXXXX@@@@@@@@@@@@@@@@@@@@@@@@@@@@@@@@@@XXXXX..",
"ooXXXXXXXXXXXXXXXXXXXXXXXXXXXXXXXXXXXXXXXXXXXX..",
"ooXXXXXXXXXXXXXXXXXXXXXXXXXXXXXXXXXXXXXXXXXXXX..",
"ooXXXXX@@XXXXXXXXXXXXXXXXXXXXXXXXXXXXXXXXXXXXX..",
"ooXXXXX@@@@XXXXXXXXXXXXXXXXXXXXXXXXXXXXXXXXXXX..",
"ooXXXXX@@@@@@XXXXXXXX@@@@@@@@@@@@@@@@@@@@XXXXX..",
"ooXXXXXXX@@@@@@XXXXXX@@@@@@@@@@@@@@@@@@@@XXXXX..",
"ooXXXXXXXXX@@@@@@XXXX@@@@@@@@@@@@@@@@@@@@XXXXX..",
"ooXXXXXXXXXXX@@@@@@XXXXXXXXXXXXXXXXXXXXXXXXXXX..",
"ooXXXXXXXXXXXXX@@@@@@XXXXXXXXXXXXXXXXXXXXXXXXX..",
"ooXXXXXXXXXXX@@@@@@XXXXXXXXXXXXXXXXXXXXXXXXXXX..",
"ooXXXXXXXXX@@@@@@XXXXXXXXXXXXXXXXXXXXXXXXXXXXX..",
"ooXXXXXXX@@@@@@XXXXX@@@@@@@@@@@@@@@@@@@@@XXXXX..",
"ooXXXXX@@@@@@XXXXXXX@@@@@@@@@@@@@@@@@@@@@XXXXX..",
"ooXXXXX@@@@XXXXXXXXX@@@@@@@@@@@@@@@@@@@@@XXXXX..",
"ooXXXXX@@XXXXXXXXXXXXXXXXXXXXXXXXXXXXXXXXXXXXX..",
"ooXXXXXXXXXXXXXXXXXXXXXXXXXXXXXXXXXXXXXXXXXXXX..",
"ooXXXXXXXXXXXXXXXXXXXXXXXXXXXXXXXXXXXXXXXXXXXX..",
"ooXXXXXXXXXXXXXXXXXXXXXXXXXXXXXXXXXXXXXXXXXXXX..",
"ooXXXXX@@@@@@@@@@@@@@@@@@@@@@@@@@@@@@@@@@XXXXX..",
"ooXXXXX@@@@@@@@@@@@@@@@@@@@@@@@@@@@@@@@@@XXXXX..",
"ooXXXXX@@@@@@@@@@@@@@@@@@@@@@@@@@@@@@@@@@XXXXX..",
"ooXXXXXXXXXXXXXXXXXXXXXXXXXXXXXXXXXXXXXXXXXXXX..",
"ooXXXXXXXXXXXXXXXXXXXXXXXXXXXXXXXXXXXXXXXXXXXX..",
"ooXXXXXXXXXXXXXXXXXXXXXXXXXXXXXXXXXXXXXXXXXXXX..",
"ooXXXXXXXXXXXXXXXXXXXXXXXXXXXXXXXXXXXXXXXXXXXX..",
"ooXXXXX@@@@@@@@@@@@@@@@@@@@@@@@@@@@@@@@@@XXXXX..",
"ooXXXXX@@@@@@@@@@@@@@@@@@@@@@@@@@@@@@@@@@XXXXX..",
"ooXXXXX@@@@@@@@@@@@@@@@@@@@@@@@@@@@@@@@@@XXXXX..",
"ooXXXXXXXXXXXXXXXXXXXXXXXXXXXXXXXXXXXXXXXXXXXX..",
"ooXXXXXXXXXXXXXXXXXXXXXXXXXXXXXXXXXXXXXXXXXXXX..",
"ooXXXXXXXXXXXXXXXXXXXXXXXXXXXXXXXXXXXXXXXXXXXX..",
"ooXXXXXXXXXXXXXXXXXXXXXXXXXXXXXXXXXXXXXXXXXXXX..",
"ooXXXXX@@@@@@@@@@@@@@@@@@@@@@@@@@@@@@@@@@XXXXX..",
"ooXXXXX@@@@@@@@@@@@@@@@@@@@@@@@@@@@@@@@@@XXXXX..",
"ooXXXXX@@@@@@@@@@@@@@@@@@@@@@@@@@@@@@@@@@XXXXX..",
"ooXXXXXXXXXXXXXXXXXXXXXXXXXXXXXXXXXXXXXXXXXXXX..",
"ooXXXXXXXXXXXXXXXXXXXXXXXXXXXXXXXXXXXXXXXXXXXX..",
"ooXXXXXXXXXXXXXXXXXXXXXXXXXXXXXXXXXXXXXXXXXXXX..",
"o...............................................",
"................................................"
};
