/* XPM */
/* This file is a part of the NsCDE - Not so Common Desktop Environment */
static char *format_text_bold[] = {
/* columns rows colors chars-per-pixel */
"48 48 4 1 ",
"@ s foreground m white c #ffffffffffff",
". s bottomShadowColor m black c #4a38441b45a5",
"X s background m black c #91ff85f98900",
"o s topShadowColor m white c #cef4c998caf2",
/* pixels */
"oooooooooooooooooooooooooooooooooooooooooooooooo",
"ooooooooooooooooooooooooooooooooooooooooooooooo.",
"ooXXXXXXXXXXXXXXXXXXXXXXXXXXXXXXXXXXXXXXXXXXXX..",
"ooXXXXXXXXXXXXXXXXXXXXXXXXXXXXXXXXXXXXXXXXXXXX..",
"ooXXXXXXXXXXXXXXXXXXXXXXXXXXXXXXXXXXXXXXXXXXXX..",
"ooXXXXXXXXXXXXXXXXXXXXXXXXXXXXXXXXXXXXXXXXXXXX..",
"ooXXXXXXXXXXXXXXXXXXXXXXXXXXXXXXXXXXXXXXXXXXXX..",
"ooXXXXXXXXXXXXXXXXXXXXXXXXXXXXXXXXXXXXXXXXXXXX..",
"ooXXXXXXXXXXXXXXXXXXXXXXXXXXXXXXXXXXXXXXXXXXXX..",
"ooXXXXXXXXXXXXXXXXXXXXXXXXXXXXXXXXXXXXXXXXXXXX..",
"ooXXXXXXXXXX@@@@@@@@@@@@@@@@@XXXXXXXXXXXXXXXXX..",
"ooXXXXXXXXXX@@@@@@@@@@@@@@@@@@@@XXXXXXXXXXXXXX..",
"ooXXXXXXXXXX@@@@@@@@@@@@@@@@@@@@@XXXXXXXXXXXXX..",
"ooXXXXXXXXXX@@@@@@@@@@@@@@@@@@@@@@XXXXXXXXXXXX..",
"ooXXXXXXXXXX@@@@@@@@@@@@@@@@@@@@@@XXXXXXXXXXXX..",
"ooXXXXXXXXXX@@@@@@@@XXXXXX@@@@@@@@@XXXXXXXXXXX..",
"ooXXXXXXXXXX@@@@@@@@XXXXXXX@@@@@@@@XXXXXXXXXXX..",
"ooXXXXXXXXXX@@@@@@@@XXXXXXX@@@@@@@@XXXXXXXXXXX..",
"ooXXXXXXXXXX@@@@@@@@XXXXXXX@@@@@@@@XXXXXXXXXXX..",
"ooXXXXXXXXXX@@@@@@@@XXXXXXX@@@@@@@@XXXXXXXXXXX..",
"ooXXXXXXXXXX@@@@@@@@XXXXXXX@@@@@@@@XXXXXXXXXXX..",
"ooXXXXXXXXXX@@@@@@@@XXXXXX@@@@@@@@XXXXXXXXXXXX..",
"ooXXXXXXXXXX@@@@@@@@@@@@@@@@@@@@@XXXXXXXXXXXXX..",
"ooXXXXXXXXXX@@@@@@@@@@@@@@@@@@@@XXXXXXXXXXXXXX..",
"ooXXXXXXXXXX@@@@@@@@@@@@@@@@@@@XXXXXXXXXXXXXXX..",
"ooXXXXXXXXXX@@@@@@@@@@@@@@@@@@@@@XXXXXXXXXXXXX..",
"ooXXXXXXXXXX@@@@@@@@@@@@@@@@@@@@@@XXXXXXXXXXXX..",
"ooXXXXXXXXXX@@@@@@@@XXXXXX@@@@@@@@@XXXXXXXXXXX..",
"ooXXXXXXXXXX@@@@@@@@XXXXXXXX@@@@@@@@XXXXXXXXXX..",
"ooXXXXXXXXXX@@@@@@@@XXXXXXXX@@@@@@@@XXXXXXXXXX..",
"ooXXXXXXXXXX@@@@@@@@XXXXXXXX@@@@@@@@XXXXXXXXXX..",
"ooXXXXXXXXXX@@@@@@@@XXXXXXXX@@@@@@@@XXXXXXXXXX..",
"ooXXXXXXXXXX@@@@@@@@XXXXXXX@@@@@@@@@XXXXXXXXXX..",
"ooXXXXXXXXXX@@@@@@@@XXXXXX@@@@@@@@@@XXXXXXXXXX..",
"ooXXXXXXXXXX@@@@@@@@@@@@@@@@@@@@@@@XXXXXXXXXXX..",
"ooXXXXXXXXXX@@@@@@@@@@@@@@@@@@@@@@@XXXXXXXXXXX..",
"ooXXXXXXXXXX@@@@@@@@@@@@@@@@@@@@@@XXXXXXXXXXXX..",
"ooXXXXXXXXXX@@@@@@@@@@@@@@@@@@@@XXXXXXXXXXXXXX..",
"ooXXXXXXXXXX@@@@@@@@@@@@@@@@@@XXXXXXXXXXXXXXXX..",
"ooXXXXXXXXXXXXXXXXXXXXXXXXXXXXXXXXXXXXXXXXXXXX..",
"ooXXXXXXXXXXXXXXXXXXXXXXXXXXXXXXXXXXXXXXXXXXXX..",
"ooXXXXXXXXXXXXXXXXXXXXXXXXXXXXXXXXXXXXXXXXXXXX..",
"ooXXXXXXXXXXXXXXXXXXXXXXXXXXXXXXXXXXXXXXXXXXXX..",
"ooXXXXXXXXXXXXXXXXXXXXXXXXXXXXXXXXXXXXXXXXXXXX..",
"ooXXXXXXXXXXXXXXXXXXXXXXXXXXXXXXXXXXXXXXXXXXXX..",
"ooXXXXXXXXXXXXXXXXXXXXXXXXXXXXXXXXXXXXXXXXXXXX..",
"o...............................................",
"................................................"
};
