/* XPM */
/* This file is a part of the NsCDE - Not so Common Desktop Environment */
static char *format_indent_less[] = {
/* columns rows colors chars-per-pixel */
"48 48 4 1 ",
"@ s foreground m white c #ffffffffffff",
". s bottomShadowColor m black c #4a38441b45a5",
"X s background m black c #91ff85f98900",
"o s topShadowColor m white c #cef4c998caf2",
/* pixels */
"oooooooooooooooooooooooooooooooooooooooooooooooo",
"ooooooooooooooooooooooooooooooooooooooooooooooo.",
"ooXXXXXXXXXXXXXXXXXXXXXXXXXXXXXXXXXXXXXXXXXXXX..",
"ooXXXXXXXXXXXXXXXXXXXXXXXXXXXXXXXXXXXXXXXXXXXX..",
"ooXXXXXXXXXXXXXXXXXXXXXXXXXXXXXXXXXXXXXXXXXXXX..",
"ooXXXXX@@@@@@@@@@@@@@@@@@@@@@@@@@@@@@@@@@XXXXX..",
"ooXXXXX@@@@@@@@@@@@@@@@@@@@@@@@@@@@@@@@@@XXXXX..",
"ooXXXXX@@@@@@@@@@@@@@@@@@@@@@@@@@@@@@@@@@XXXXX..",
"ooXXXXXXXXXXXXXXXXXXXXXXXXXXXXXXXXXXXXXXXXXXXX..",
"ooXXXXXXXXXXXXXXXXXXXXXXXXXXXXXXXXXXXXXXXXXXXX..",
"ooXXXXXXXXXXXXXXXXXXXXXXXXXXXXXXXXXXXXX@@XXXXX..",
"ooXXXXXXXXXXXXXXXXXXXXXXXXXXXXXXXXXXX@@@@XXXXX..",
"ooXXXXX@@@@@@@@@@@@@@@@@@@@XXXXXXXX@@@@@@XXXXX..",
"ooXXXXX@@@@@@@@@@@@@@@@@@@@XXXXXX@@@@@@XXXXXXX..",
"ooXXXXX@@@@@@@@@@@@@@@@@@@@XXXX@@@@@@XXXXXXXXX..",
"ooXXXXXXXXXXXXXXXXXXXXXXXXXXX@@@@@@XXXXXXXXXXX..",
"ooXXXXXXXXXXXXXXXXXXXXXXXXX@@@@@@XXXXXXXXXXXXX..",
"ooXXXXXXXXXXXXXXXXXXXXXXXXXXX@@@@@@XXXXXXXXXXX..",
"ooXXXXXXXXXXXXXXXXXXXXXXXXXXXXX@@@@@@XXXXXXXXX..",
"ooXXXXX@@@@@@@@@@@@@@@@@@@@@XXXXX@@@@@@XXXXXXX..",
"ooXXXXX@@@@@@@@@@@@@@@@@@@@@XXXXXXX@@@@@@XXXXX..",
"ooXXXXX@@@@@@@@@@@@@@@@@@@@@XXXXXXXXX@@@@XXXXX..",
"ooXXXXXXXXXXXXXXXXXXXXXXXXXXXXXXXXXXXXX@@XXXXX..",
"ooXXXXXXXXXXXXXXXXXXXXXXXXXXXXXXXXXXXXXXXXXXXX..",
"ooXXXXXXXXXXXXXXXXXXXXXXXXXXXXXXXXXXXXXXXXXXXX..",
"ooXXXXXXXXXXXXXXXXXXXXXXXXXXXXXXXXXXXXXXXXXXXX..",
"ooXXXXX@@@@@@@@@@@@@@@@@@@@@@@@@@@@@@@@@@XXXXX..",
"ooXXXXX@@@@@@@@@@@@@@@@@@@@@@@@@@@@@@@@@@XXXXX..",
"ooXXXXX@@@@@@@@@@@@@@@@@@@@@@@@@@@@@@@@@@XXXXX..",
"ooXXXXXXXXXXXXXXXXXXXXXXXXXXXXXXXXXXXXXXXXXXXX..",
"ooXXXXXXXXXXXXXXXXXXXXXXXXXXXXXXXXXXXXXXXXXXXX..",
"ooXXXXXXXXXXXXXXXXXXXXXXXXXXXXXXXXXXXXXXXXXXXX..",
"ooXXXXXXXXXXXXXXXXXXXXXXXXXXXXXXXXXXXXXXXXXXXX..",
"ooXXXXX@@@@@@@@@@@@@@@@@@@@@@@@@@@@@@@@@@XXXXX..",
"ooXXXXX@@@@@@@@@@@@@@@@@@@@@@@@@@@@@@@@@@XXXXX..",
"ooXXXXX@@@@@@@@@@@@@@@@@@@@@@@@@@@@@@@@@@XXXXX..",
"ooXXXXXXXXXXXXXXXXXXXXXXXXXXXXXXXXXXXXXXXXXXXX..",
"ooXXXXXXXXXXXXXXXXXXXXXXXXXXXXXXXXXXXXXXXXXXXX..",
"ooXXXXXXXXXXXXXXXXXXXXXXXXXXXXXXXXXXXXXXXXXXXX..",
"ooXXXXXXXXXXXXXXXXXXXXXXXXXXXXXXXXXXXXXXXXXXXX..",
"ooXXXXX@@@@@@@@@@@@@@@@@@@@@@@@@@@@@@@@@@XXXXX..",
"ooXXXXX@@@@@@@@@@@@@@@@@@@@@@@@@@@@@@@@@@XXXXX..",
"ooXXXXX@@@@@@@@@@@@@@@@@@@@@@@@@@@@@@@@@@XXXXX..",
"ooXXXXXXXXXXXXXXXXXXXXXXXXXXXXXXXXXXXXXXXXXXXX..",
"ooXXXXXXXXXXXXXXXXXXXXXXXXXXXXXXXXXXXXXXXXXXXX..",
"ooXXXXXXXXXXXXXXXXXXXXXXXXXXXXXXXXXXXXXXXXXXXX..",
"o...............................................",
"................................................"
};
