/* XPM */
/* This file is a part of the NsCDE - Not so Common Desktop Environment */
static char *list_add_48x48[] = {
/* columns rows colors chars-per-pixel */
"48 48 4 1 ",
".      s None m None c None",
"@      s bottomShadowColor m black c #4a38441b45a5",
"X      s topShadowColor m black c #cef4c998caf2",
"o      s foreground m black c #ffffffffffff",
/* pixels */
"XXXXXXXXXXXXXXXXXXXXXXXXXXXXXXXXXXXXXXXXXXXXX@@@",
"XXXXXXXXXXXXXXXXXXXXXXXXXXXXXXXXXXXXXXXXXXXXX@@@",
"XXXXXXXXXXXXXXXXXXXXXXXXXXXXXXXXXXXXXXXXXXXXX@@@",
"XXX..........................................@@@",
"XXX..........................................@@@",
"XXX..........................................@@@",
"XXX..........................................@@@",
"XXX..........................................@@@",
"XXX..........................................@@@",
"XXX..........................................@@@",
"XXX..................XXXXXX..................@@@",
"XXX..................XooooX..................@@@",
"XXX..................XooooX..................@@@",
"XXX..................XooooX..................@@@",
"XXX..................XooooX..................@@@",
"XXX..................XooooX..................@@@",
"XXX..................XooooX..................@@@",
"XXX..................XooooX..................@@@",
"XXX..................XooooX..................@@@",
"XXX..................XooooX..................@@@",
"XXX.................XXooooXX.................@@@",
"XXX.......XXXXXXXXXXXooooooXXXXXXXXXXX.......@@@",
"XXX.......XooooooooooooooooooooooooooX.......@@@",
"XXX.......XooooooooooooooooooooooooooX.......@@@",
"XXX.......XooooooooooooooooooooooooooX.......@@@",
"XXX.......XooooooooooooooooooooooooooX.......@@@",
"XXX.......XXXXXXXXXXXooooooXXXXXXXXXXX.......@@@",
"XXX.................XXooooXX.................@@@",
"XXX..................XooooX..................@@@",
"XXX..................XooooX..................@@@",
"XXX..................XooooX..................@@@",
"XXX..................XooooX..................@@@",
"XXX..................XooooX..................@@@",
"XXX..................XooooX..................@@@",
"XXX..................XooooX..................@@@",
"XXX..................XooooX..................@@@",
"XXX..................XooooX..................@@@",
"XXX..................XXXXXX..................@@@",
"XXX..........................................@@@",
"XXX..........................................@@@",
"XXX..........................................@@@",
"XXX..........................................@@@",
"XXX..........................................@@@",
"XXX..........................................@@@",
"XXX..........................................@@@",
"XXX@@@@@@@@@@@@@@@@@@@@@@@@@@@@@@@@@@@@@@@@@@@@@",
"XXX@@@@@@@@@@@@@@@@@@@@@@@@@@@@@@@@@@@@@@@@@@@@@",
"XXX@@@@@@@@@@@@@@@@@@@@@@@@@@@@@@@@@@@@@@@@@@@@@"
};
