/* XPM */
/* This file is a part of the NsCDE - Not so Common Desktop Environment */
static char *_8x48_media_skip_forward_rtl[] = {
/* columns rows colors chars-per-pixel */
"48 48 4 1 ",
"@ s foreground m white c #ffffffffffff",
". s bottomShadowColor m black c #4a38441b45a5",
"X s background m black c #91ff85f98900",
"o s topShadowColor m white c #cef4c998caf2",
/* pixels */
"oooooooooooooooooooooooooooooooooooooooooooooooo",
"ooooooooooooooooooooooooooooooooooooooooooooooo.",
"oooooooooooooooooooooooooooooooooooooooooooooo..",
"oooXXXXXXXXXXXXXXXXXXXXXXXXXXXXXXXXXXXXXXXXXX...",
"oooXXXXXXXXXXXXXXXXXXXXXXXXXXXXXXXXXXXXXXXXXX...",
"oooXXXXXXXXXXXXXXXXXXXXXXXXXXXXXXXXXXXXXXXXXX...",
"oooXXXXXXXXXXXXXXXXXXXXXXXXXXXXXXXXXXXXXXXXXX...",
"oooXXXXXXXXXXXXXXXXXXXXXXXXXXXXXXXXXXXXXXXXXX...",
"oooXXXXXXXXXXXXXXXXXXXXXXXXXXXXXXXXXXXXXXXXXX...",
"oooXXXXXXXXXXXXXXXXXXXXXXXXXXXXXXXXXXXXXXXXXX...",
"oooXXXXXXXXXXXXXXXXXXXXXXXXXXXXXXXXXXXXXXXXXX...",
"oooXXXXXXXXXXXXXXXXXXXXXXXXXXXXXXXXXXXXXXXXXX...",
"oooXXXXXXXXXXXXXXXXXXXXXXXXXXXXXXXXXXXXXXXXXX...",
"oooXXX@@@XXXXXXXXXXXXXXXXXXXXXXXXXXXXXXXXXXXX...",
"oooXXX@@@XXXXXXXXXXXXXXXXXXXXXXXXXXXXXXXXXXXX...",
"oooXXX@@@XXXXXXXXXXXXXX@@@XXXXXXXXXXXXX@@@XXX...",
"oooXXX@@@XXXXXXXXXXXX@@@@@XXXXXXXXXXX@@@@@XXX...",
"oooXXX@@@XXXXXXXXXX@@@@@@@XXXXXXXXX@@@@@@@XXX...",
"oooXXX@@@XXXXXXXX@@@@@@@@@XXXXXXX@@@@@@@@@XXX...",
"oooXXX@@@XXXXXX@@@@@@@@@@@XXXXX@@@@@@@@@@@XXX...",
"oooXXX@@@XXXX@@@@@@@@@@@@@XXX@@@@@@@@@@@@@XXX...",
"oooXXX@@@XX@@@@@@@@@@@@@@@X@@@@@@@@@@@@@@@XXX...",
"oooXXX@@@@@@@@@@@@@@@@@@@@@@@@@@@@@@@@@@@@XXX...",
"oooXXX@@@@@@@@@@@@@@@@@@@@@@@@@@@@@@@@@@@@XXX...",
"oooXXX@@@@@@@@@@@@@@@@@@@@@@@@@@@@@@@@@@@@XXX...",
"oooXXX@@@XX@@@@@@@@@@@@@@@X@@@@@@@@@@@@@@@XXX...",
"oooXXX@@@XXXX@@@@@@@@@@@@@XXX@@@@@@@@@@@@@XXX...",
"oooXXX@@@XXXXXX@@@@@@@@@@@XXXXX@@@@@@@@@@@XXX...",
"oooXXX@@@XXXXXXXX@@@@@@@@@XXXXXXX@@@@@@@@@XXX...",
"oooXXX@@@XXXXXXXXXX@@@@@@@XXXXXXXXX@@@@@@@XXX...",
"oooXXX@@@XXXXXXXXXXXX@@@@@XXXXXXXXXXX@@@@@XXX...",
"oooXXX@@@XXXXXXXXXXXXXX@@@XXXXXXXXXXXXX@@@XXX...",
"oooXXX@@@XXXXXXXXXXXXXXXXXXXXXXXXXXXXXXXXXXXX...",
"oooXXX@@@XXXXXXXXXXXXXXXXXXXXXXXXXXXXXXXXXXXX...",
"oooXXXXXXXXXXXXXXXXXXXXXXXXXXXXXXXXXXXXXXXXXX...",
"oooXXXXXXXXXXXXXXXXXXXXXXXXXXXXXXXXXXXXXXXXXX...",
"oooXXXXXXXXXXXXXXXXXXXXXXXXXXXXXXXXXXXXXXXXXX...",
"oooXXXXXXXXXXXXXXXXXXXXXXXXXXXXXXXXXXXXXXXXXX...",
"oooXXXXXXXXXXXXXXXXXXXXXXXXXXXXXXXXXXXXXXXXXX...",
"oooXXXXXXXXXXXXXXXXXXXXXXXXXXXXXXXXXXXXXXXXXX...",
"oooXXXXXXXXXXXXXXXXXXXXXXXXXXXXXXXXXXXXXXXXXX...",
"oooXXXXXXXXXXXXXXXXXXXXXXXXXXXXXXXXXXXXXXXXXX...",
"oooXXXXXXXXXXXXXXXXXXXXXXXXXXXXXXXXXXXXXXXXXX...",
"oooXXXXXXXXXXXXXXXXXXXXXXXXXXXXXXXXXXXXXXXXXX...",
"oooXXXXXXXXXXXXXXXXXXXXXXXXXXXXXXXXXXXXXXXXXX...",
"ooo.............................................",
"oo..............................................",
"o..............................................."
};
