/* XPM */
/* This file is a part of the NsCDE - Not so Common Desktop Environment */
static char *_8x48_media_playback_start[] = {
/* columns rows colors chars-per-pixel */
"48 48 4 1 ",
"@ s foreground m white c #ffffffffffff",
". s bottomShadowColor m black c #4a38441b45a5",
"X s background m black c #91ff85f98900",
"o s topShadowColor m white c #cef4c998caf2",
/* pixels */
"oooooooooooooooooooooooooooooooooooooooooooooooo",
"ooooooooooooooooooooooooooooooooooooooooooooooo.",
"oooooooooooooooooooooooooooooooooooooooooooooo..",
"oooXXXXXXXXXXXXXXXXXXXXXXXXXXXXXXXXXXXXXXXXXX...",
"oooXXXXXXXXXXXXXXXXXXXXXXXXXXXXXXXXXXXXXXXXXX...",
"oooXXXXXXXXXXXXXXXXXXXXXXXXXXXXXXXXXXXXXXXXXX...",
"oooXXXXXXXXXXXXXXXXXXXXXXXXXXXXXXXXXXXXXXXXXX...",
"oooXXXXXXXXXXXXXXXXXXXXXXXXXXXXXXXXXXXXXXXXXX...",
"oooXXXXXXXXXXXXXXXXXXXXXXXXXXXXXXXXXXXXXXXXXX...",
"oooXXXXXXXXXXXXXXXXXXXXXXXXXXXXXXXXXXXXXXXXXX...",
"oooXXXXXXXXXXXXXXXXXXXXXXXXXXXXXXXXXXXXXXXXXX...",
"oooXXXXXXXXXXXXXXXXXXXXXXXXXXXXXXXXXXXXXXXXXX...",
"oooXXXXXXXXXXXXXXXXXXXXXXXXXXXXXXXXXXXXXXXXXX...",
"oooXXXXXXXXXXXXXXXXXXXXXXXXXXXXXXXXXXXXXXXXXX...",
"oooXXXXXXXXXXXXXXXXXXXXXXXXXXXXXXXXXXXXXXXXXX...",
"oooXXXXXXXXXXXXXX@@@XXXXXXXXXXXXXXXXXXXXXXXXX...",
"oooXXXXXXXXXXXXXX@@@@@XXXXXXXXXXXXXXXXXXXXXXX...",
"oooXXXXXXXXXXXXXX@@@@@@@XXXXXXXXXXXXXXXXXXXXX...",
"oooXXXXXXXXXXXXXX@@@@@@@@@XXXXXXXXXXXXXXXXXXX...",
"oooXXXXXXXXXXXXXX@@@@@@@@@@@XXXXXXXXXXXXXXXXX...",
"oooXXXXXXXXXXXXXX@@@@@@@@@@@@@XXXXXXXXXXXXXXX...",
"oooXXXXXXXXXXXXXX@@@@@@@@@@@@@@@XXXXXXXXXXXXX...",
"oooXXXXXXXXXXXXXX@@@@@@@@@@@@@@@@XXXXXXXXXXXX...",
"oooXXXXXXXXXXXXXX@@@@@@@@@@@@@@@@@@XXXXXXXXXX...",
"oooXXXXXXXXXXXXXX@@@@@@@@@@@@@@@@XXXXXXXXXXXX...",
"oooXXXXXXXXXXXXXX@@@@@@@@@@@@@@@XXXXXXXXXXXXX...",
"oooXXXXXXXXXXXXXX@@@@@@@@@@@@@XXXXXXXXXXXXXXX...",
"oooXXXXXXXXXXXXXX@@@@@@@@@@@XXXXXXXXXXXXXXXXX...",
"oooXXXXXXXXXXXXXX@@@@@@@@@XXXXXXXXXXXXXXXXXXX...",
"oooXXXXXXXXXXXXXX@@@@@@@XXXXXXXXXXXXXXXXXXXXX...",
"oooXXXXXXXXXXXXXX@@@@@XXXXXXXXXXXXXXXXXXXXXXX...",
"oooXXXXXXXXXXXXXX@@@XXXXXXXXXXXXXXXXXXXXXXXXX...",
"oooXXXXXXXXXXXXXXXXXXXXXXXXXXXXXXXXXXXXXXXXXX...",
"oooXXXXXXXXXXXXXXXXXXXXXXXXXXXXXXXXXXXXXXXXXX...",
"oooXXXXXXXXXXXXXXXXXXXXXXXXXXXXXXXXXXXXXXXXXX...",
"oooXXXXXXXXXXXXXXXXXXXXXXXXXXXXXXXXXXXXXXXXXX...",
"oooXXXXXXXXXXXXXXXXXXXXXXXXXXXXXXXXXXXXXXXXXX...",
"oooXXXXXXXXXXXXXXXXXXXXXXXXXXXXXXXXXXXXXXXXXX...",
"oooXXXXXXXXXXXXXXXXXXXXXXXXXXXXXXXXXXXXXXXXXX...",
"oooXXXXXXXXXXXXXXXXXXXXXXXXXXXXXXXXXXXXXXXXXX...",
"oooXXXXXXXXXXXXXXXXXXXXXXXXXXXXXXXXXXXXXXXXXX...",
"oooXXXXXXXXXXXXXXXXXXXXXXXXXXXXXXXXXXXXXXXXXX...",
"oooXXXXXXXXXXXXXXXXXXXXXXXXXXXXXXXXXXXXXXXXXX...",
"oooXXXXXXXXXXXXXXXXXXXXXXXXXXXXXXXXXXXXXXXXXX...",
"oooXXXXXXXXXXXXXXXXXXXXXXXXXXXXXXXXXXXXXXXXXX...",
"ooo.............................................",
"oo..............................................",
"o..............................................."
};
