/* XPM */
/* This file is a part of the NsCDE - Not so Common Desktop Environment */
static char *_8x48_media_seek_forward[] = {
/* columns rows colors chars-per-pixel */
"48 48 4 1 ",
"@ s foreground m white c #ffffffffffff",
". s bottomShadowColor m black c #4a38441b45a5",
"X s background m black c #91ff85f98900",
"o s topShadowColor m white c #cef4c998caf2",
/* pixels */
"oooooooooooooooooooooooooooooooooooooooooooooooo",
"ooooooooooooooooooooooooooooooooooooooooooooooo.",
"oooooooooooooooooooooooooooooooooooooooooooooo..",
"oooXXXXXXXXXXXXXXXXXXXXXXXXXXXXXXXXXXXXXXXXXX...",
"oooXXXXXXXXXXXXXXXXXXXXXXXXXXXXXXXXXXXXXXXXXX...",
"oooXXXXXXXXXXXXXXXXXXXXXXXXXXXXXXXXXXXXXXXXXX...",
"oooXXXXXXXXXXXXXXXXXXXXXXXXXXXXXXXXXXXXXXXXXX...",
"oooXXXXXXXXXXXXXXXXXXXXXXXXXXXXXXXXXXXXXXXXXX...",
"oooXXXXXXXXXXXXXXXXXXXXXXXXXXXXXXXXXXXXXXXXXX...",
"oooXXXXXXXXXXXXXXXXXXXXXXXXXXXXXXXXXXXXXXXXXX...",
"oooXXXXXXXXXXXXXXXXXXXXXXXXXXXXXXXXXXXXXXXXXX...",
"oooXXXXXXXXXXXXXXXXXXXXXXXXXXXXXXXXXXXXXXXXXX...",
"oooXXXXXXXXXXXXXXXXXXXXXXXXXXXXXXXXXXXXXXXXXX...",
"oooXXXXXXXXXXXXXXXXXXXXXXXXXXXXXXXXXXXXXXXXXX...",
"oooXXXXXXXXXXXXXXXXXXXXXXXXXXXXXXXXXXXXXXXXXX...",
"oooXXXX@@@XXXXXXXXXXXXXX@@@XXXXXXXXXXXXXXXXXX...",
"oooXXXX@@@@@XXXXXXXXXXXX@@@@@XXXXXXXXXXXXXXXX...",
"oooXXXX@@@@@@@XXXXXXXXXX@@@@@@@XXXXXXXXXXXXXX...",
"oooXXXX@@@@@@@@@XXXXXXXX@@@@@@@@@XXXXXXXXXXXX...",
"oooXXXX@@@@@@@@@@@XXXXXX@@@@@@@@@@@XXXXXXXXXX...",
"oooXXXX@@@@@@@@@@@@@XXXX@@@@@@@@@@@@@XXXXXXXX...",
"oooXXXX@@@@@@@@@@@@@@@XX@@@@@@@@@@@@@@@XXXXXX...",
"oooXXXX@@@@@@@@@@@@@@@@X@@@@@@@@@@@@@@@@@XXXX...",
"oooXXXX@@@@@@@@@@@@@@@@@@@@@@@@@@@@@@@@@@@XXX...",
"oooXXXX@@@@@@@@@@@@@@@@X@@@@@@@@@@@@@@@@@XXXX...",
"oooXXXX@@@@@@@@@@@@@@@XX@@@@@@@@@@@@@@@XXXXXX...",
"oooXXXX@@@@@@@@@@@@@XXXX@@@@@@@@@@@@@XXXXXXXX...",
"oooXXXX@@@@@@@@@@@XXXXXX@@@@@@@@@@@XXXXXXXXXX...",
"oooXXXX@@@@@@@@@XXXXXXXX@@@@@@@@@XXXXXXXXXXXX...",
"oooXXXX@@@@@@@XXXXXXXXXX@@@@@@@XXXXXXXXXXXXXX...",
"oooXXXX@@@@@XXXXXXXXXXXX@@@@@XXXXXXXXXXXXXXXX...",
"oooXXXX@@@XXXXXXXXXXXXXX@@@XXXXXXXXXXXXXXXXXX...",
"oooXXXXXXXXXXXXXXXXXXXXXXXXXXXXXXXXXXXXXXXXXX...",
"oooXXXXXXXXXXXXXXXXXXXXXXXXXXXXXXXXXXXXXXXXXX...",
"oooXXXXXXXXXXXXXXXXXXXXXXXXXXXXXXXXXXXXXXXXXX...",
"oooXXXXXXXXXXXXXXXXXXXXXXXXXXXXXXXXXXXXXXXXXX...",
"oooXXXXXXXXXXXXXXXXXXXXXXXXXXXXXXXXXXXXXXXXXX...",
"oooXXXXXXXXXXXXXXXXXXXXXXXXXXXXXXXXXXXXXXXXXX...",
"oooXXXXXXXXXXXXXXXXXXXXXXXXXXXXXXXXXXXXXXXXXX...",
"oooXXXXXXXXXXXXXXXXXXXXXXXXXXXXXXXXXXXXXXXXXX...",
"oooXXXXXXXXXXXXXXXXXXXXXXXXXXXXXXXXXXXXXXXXXX...",
"oooXXXXXXXXXXXXXXXXXXXXXXXXXXXXXXXXXXXXXXXXXX...",
"oooXXXXXXXXXXXXXXXXXXXXXXXXXXXXXXXXXXXXXXXXXX...",
"oooXXXXXXXXXXXXXXXXXXXXXXXXXXXXXXXXXXXXXXXXXX...",
"oooXXXXXXXXXXXXXXXXXXXXXXXXXXXXXXXXXXXXXXXXXX...",
"ooo.............................................",
"oo..............................................",
"o..............................................."
};
