/* XPM */
/* This file is a part of the NsCDE - Not so Common Desktop Environment */
static char *zoom_original_48x48[] = {
/* columns rows colors chars-per-pixel */
"48 48 4 1 ",
".      s None m None c None",
"@      s bottomShadowColor m black c #4a38441b45a5",
"X      s topShadowColor m black c #cef4c998caf2",
"o      s foreground m black c #ffffffffffff",
/* pixels */
"XXXXXXXXXXXXXXXXXXXXXXXXXXXXXXXXXXXXXXXXXXXXXXXX",
"XXXXXXXXXXXXXXXXXXXXXXXXXXXXXXXXXXXXXXXXXXXXXXXX",
"XXXXXXXXXXXXXXXXXXXXXXXXXXXXXXXXXXXXXXXXXXXXXXXX",
"XXX..........................................@@@",
"XXX..........................................@@@",
"XXX..........................................@@@",
"XXX..........................................@@@",
"XXX..........................................@@@",
"XXX..........................................@@@",
"XXX..........................................@@@",
"XXX..........................................@@@",
"XXX..........................................@@@",
"XXX........oooo..................ooooo.......@@@",
"XXX........oooo..................ooooo.......@@@",
"XXX...ooooooooo..............ooooooooo.......@@@",
"XXX...ooooooooo..............ooooooooo.......@@@",
"XXX...ooooooooo..............ooooooooo.......@@@",
"XXX........oooo..................ooooo.......@@@",
"XXX........oooo..................ooooo.......@@@",
"XXX........oooo..................ooooo.......@@@",
"XXX........oooo......ooooo.......ooooo.......@@@",
"XXX........oooo......ooooo.......ooooo.......@@@",
"XXX........oooo......ooooo.......ooooo.......@@@",
"XXX........oooo......ooooo.......ooooo.......@@@",
"XXX........oooo..................ooooo.......@@@",
"XXX........oooo..................ooooo.......@@@",
"XXX........oooo..................ooooo.......@@@",
"XXX........oooo..................ooooo.......@@@",
"XXX........oooo..................ooooo.......@@@",
"XXX........oooo..................ooooo.......@@@",
"XXX........oooo..................ooooo.......@@@",
"XXX........oooo..................ooooo.......@@@",
"XXX........oooo..................ooooo.......@@@",
"XXX........oooo......ooooo.......ooooo.......@@@",
"XXX........oooo......ooooo.......ooooo.......@@@",
"XXX...oooooooooooooo.ooooo...ooooooooooooo...@@@",
"XXX...oooooooooooooo.ooooo...ooooooooooooo...@@@",
"XXX...oooooooooooooo.ooooo...ooooooooooooo...@@@",
"XXX..........................................@@@",
"XXX..........................................@@@",
"XXX..........................................@@@",
"XXX..........................................@@@",
"XXX..........................................@@@",
"XXX..........................................@@@",
"XXX..........................................@@@",
"XXX@@@@@@@@@@@@@@@@@@@@@@@@@@@@@@@@@@@@@@@@@@@@@",
"XXX@@@@@@@@@@@@@@@@@@@@@@@@@@@@@@@@@@@@@@@@@@@@@",
"XXX@@@@@@@@@@@@@@@@@@@@@@@@@@@@@@@@@@@@@@@@@@@@@"
};
