/* XPM */
/* This file is a part of the NsCDE - Not so Common Desktop Environment */
static char *zoom_fit_best_48x48[] = {
/* columns rows colors chars-per-pixel */
"48 48 4 1 ",
".      s None m None c None",
"@      s bottomShadowColor m black c #4a38441b45a5",
"X      s topShadowColor m black c #cef4c998caf2",
"o      s foreground m black c #ffffffffffff",
/* pixels */
"XXXXXXXXXXXXXXXXXXXXXXXXXXXXXXXXXXXXXXXXXXXXXXXX",
"XXXXXXXXXXXXXXXXXXXXXXXXXXXXXXXXXXXXXXXXXXXXXXXX",
"XXXXXXXXXXXXXXXXXXXXXXXXXXXXXXXXXXXXXXXXXXXXXXXX",
"XXX..........................................@@@",
"XXX..........................................@@@",
"XXX..........................................@@@",
"XXX..........................................@@@",
"XXX..........................................@@@",
"XXX.....oooooooooooo.........oooooooooooo....@@@",
"XXX.....oooooooooooo.........oooooooooooo....@@@",
"XXX.....oooooooooooo.........oooooooooooo....@@@",
"XXX.....ooo...........................ooo....@@@",
"XXX.....ooo...........................ooo....@@@",
"XXX.....ooo...........................ooo....@@@",
"XXX.....ooo...........................ooo....@@@",
"XXX.....ooo...........................ooo....@@@",
"XXX.....ooo...........................ooo....@@@",
"XXX.....ooo...........................ooo....@@@",
"XXX.....ooo...........................ooo....@@@",
"XXX.....ooo...........................ooo....@@@",
"XXX..........................................@@@",
"XXX..........................................@@@",
"XXX..........................................@@@",
"XXX..........................................@@@",
"XXX..........................................@@@",
"XXX..........................................@@@",
"XXX..........................................@@@",
"XXX..........................................@@@",
"XXX..........................................@@@",
"XXX.....ooo...........................ooo....@@@",
"XXX.....ooo...........................ooo....@@@",
"XXX.....ooo...........................ooo....@@@",
"XXX.....ooo...........................ooo....@@@",
"XXX.....ooo...........................ooo....@@@",
"XXX.....ooo...........................ooo....@@@",
"XXX.....ooo...........................ooo....@@@",
"XXX.....ooo...........................ooo....@@@",
"XXX.....ooo...........................ooo....@@@",
"XXX.....oooooooooooo.........oooooooooooo....@@@",
"XXX.....oooooooooooo.........oooooooooooo....@@@",
"XXX.....oooooooooooo.........oooooooooooo....@@@",
"XXX..........................................@@@",
"XXX..........................................@@@",
"XXX..........................................@@@",
"XXX..........................................@@@",
"XXX@@@@@@@@@@@@@@@@@@@@@@@@@@@@@@@@@@@@@@@@@@@@@",
"XXX@@@@@@@@@@@@@@@@@@@@@@@@@@@@@@@@@@@@@@@@@@@@@",
"XXX@@@@@@@@@@@@@@@@@@@@@@@@@@@@@@@@@@@@@@@@@@@@@"
};
