/* XPM */
/* This file is a part of the NsCDE - Not so Common Desktop Environment */
static char *format_indent_more[] = {
/* columns rows colors chars-per-pixel */
"22 22 4 1 ",
"@ s foreground m white c #ffffffffffff",
". s bottomShadowColor m black c #4a38441b45a5",
"X s background m black c #91ff85f98900",
"o s topShadowColor m white c #cef4c998caf2",
/* pixels */
"ooooooooooooooooooooo.",
"oXXXXXXXXXXXXXXXXXXXX.",
"oXX@@@@@@@@@@@@@@@@XX.",
"oXX@@@@@@@@@@@@@@@@XX.",
"oXXXXXXXXXXXXXXXXXXXX.",
"oXX@XXXXXXXXXXXXXXXXX.",
"oXX@@@XXXX@@@@@@@@@XX.",
"oXXX@@@@XX@@@@@@@@@XX.",
"oXXXXXX@@XXXXXXXXXXXX.",
"oXXXXXX@@XXXXXXXXXXXX.",
"oXXX@@@@XX@@@@@@@@@XX.",
"oXX@@@XXXX@@@@@@@@@XX.",
"oXX@XXXXXXXXXXXXXXXXX.",
"oXXXXXXXXXXXXXXXXXXXX.",
"oXX@@@@@@@@@@@@@@@@XX.",
"oXX@@@@@@@@@@@@@@@@XX.",
"oXXXXXXXXXXXXXXXXXXXX.",
"oXXXXXXXXXXXXXXXXXXXX.",
"oXX@@@@@@@@@@@@@@@@XX.",
"oXX@@@@@@@@@@@@@@@@XX.",
"oXXXXXXXXXXXXXXXXXXXX.",
"......................"
};
