/* XPM */
/* This file is a part of the NsCDE - Not so Common Desktop Environment */
static char *format_text_italic[] = {
/* columns rows colors chars-per-pixel */
"22 22 4 1 ",
"@ s foreground m white c #ffffffffffff",
". s bottomShadowColor m black c #4a38441b45a5",
"X s background m black c #91ff85f98900",
"o s topShadowColor m white c #cef4c998caf2",
/* pixels */
"ooooooooooooooooooooo.",
"oXXXXXXXXXXXXXXXXXXXX.",
"oXXXXXXXXXX@@XXXXXXXX.",
"oXXXXXXXXXX@@XXXXXXXX.",
"oXXXXXXXXXXXXXXXXXXXX.",
"oXXXXXXXXXXXXXXXXXXXX.",
"oXXXXXXXXXXXXXXXXXXXX.",
"oXXXXXXXXX@@XXXXXXXXX.",
"oXXXXXXXXX@@XXXXXXXXX.",
"oXXXXXXXXX@@XXXXXXXXX.",
"oXXXXXXXXX@@XXXXXXXXX.",
"oXXXXXXXX@@XXXXXXXXXX.",
"oXXXXXXXX@@XXXXXXXXXX.",
"oXXXXXXXX@@XXXXXXXXXX.",
"oXXXXXXXX@@XXXXXXXXXX.",
"oXXXXXXXX@@XXXXXXXXXX.",
"oXXXXXXX@@@XXXXXXXXXX.",
"oXXXXXXX@@XXXXXXXXXXX.",
"oXXXXXXX@@XXXXXXXXXXX.",
"oXXXXXXX@@XXXXXXXXXXX.",
"oXXXXXXXXXXXXXXXXXXXX.",
"......................"
};
