/* XPM */
/* This file is a part of the NsCDE - Not so Common Desktop Environment */
static char *_2x22_format_justify_left[] = {
/* columns rows colors chars-per-pixel */
"22 22 4 1 ",
"@ s foreground m white c #ffffffffffff",
". s bottomShadowColor m black c #4a38441b45a5",
"X s background m black c #91ff85f98900",
"o s topShadowColor m white c #cef4c998caf2",
/* pixels */
"ooooooooooooooooooooo.",
"oXXXXXXXXXXXXXXXXXXXX.",
"oXX@@@@@@@@@@@@@@@@XX.",
"oXX@@@@@@@@@@@@@@@@XX.",
"oXXXXXXXXXXXXXXXXXXXX.",
"oXXXXXXXXXXXXXXXXXXXX.",
"oXX@@@@@@@@@@@@@XXXXX.",
"oXX@@@@@@@@@@@@@XXXXX.",
"oXXXXXXXXXXXXXXXXXXXX.",
"oXXXXXXXXXXXXXXXXXXXX.",
"oXX@@@@@@@@@@XXXXXXXX.",
"oXX@@@@@@@@@@XXXXXXXX.",
"oXXXXXXXXXXXXXXXXXXXX.",
"oXXXXXXXXXXXXXXXXXXXX.",
"oXX@@@@@@@@@@@@@@XXXX.",
"oXX@@@@@@@@@@@@@@XXXX.",
"oXXXXXXXXXXXXXXXXXXXX.",
"oXXXXXXXXXXXXXXXXXXXX.",
"oXX@@@@@@@@@@@@@@@XXX.",
"oXX@@@@@@@@@@@@@@@XXX.",
"oXXXXXXXXXXXXXXXXXXXX.",
"......................"
};
