/* XPM */
/* This file is a part of the NsCDE - Not so Common Desktop Environment */
static char *list_add_22x22[] = {
/* columns rows colors chars-per-pixel */
"22 22 4 1 ",
".      s None m None c None",
"@      s bottomShadowColor m black c #4a38441b45a5",
"X      s topShadowColor m black c #cef4c998caf2",
"o      s foreground m black c #ffffffffffff",
/* pixels */
"XXXXXXXXXXXXXXXXXXXXX@",
"X....................@",
"X....................@",
"X....................@",
"X........XooX........@",
"X........XooX........@",
"X........XooX........@",
"X........XooX........@",
"X.......XXooXX.......@",
"X...XXXXXooooXXXXX...@",
"X...oooooooooooooo...@",
"X...oooooooooooooo...@",
"X...XXXXXooooXXXXX...@",
"X.......XXooXX.......@",
"X........XooX........@",
"X........XooX........@",
"X........XooX........@",
"X........XooX........@",
"X....................@",
"X....................@",
"X....................@",
"X@@@@@@@@@@@@@@@@@@@@@"
};
