/* XPM */
/* This file is a part of the NsCDE - Not so Common Desktop Environment */
static char *_2x22_media_record[] = {
/* columns rows colors chars-per-pixel */
"22 22 4 1 ",
"@ c red",
". s bottomShadowColor m black c #4a38441b45a5",
"X s background m black c #91ff85f98900",
"o s topShadowColor m white c #cef4c998caf2",
/* pixels */
"oooooooooooooooooooooo",
"oXXXXXXXXXXXXXXXXXXXX.",
"oXXXXXXXXXXXXXXXXXXXX.",
"oXXXXXXXooooooXXXXXXX.",
"oXXXXXooo@@@@oooXXXXX.",
"oXXXXoo@@@@@@@@ooXXXX.",
"oXXXoo@@@@@@@@@@ooXXX.",
"oXXXo@@@@@@@@@@@@oXXX.",
"oXXoo@@@@@@@@@@@@ooXX.",
"oXXo@@@@@@@@@@@@@@oXX.",
"oXXo@@@@@@@@@@@@@@oXX.",
"oXXo@@@@@@@@@@@@@@oXX.",
"oXXo@@@@@@@@@@@@@@oXX.",
"oXXoo@@@@@@@@@@@@ooXX.",
"oXXXo@@@@@@@@@@@@oXXX.",
"oXXXoo@@@@@@@@@@ooXXX.",
"oXXXXoo@@@@@@@@ooXXXX.",
"oXXXXXooo@@@@oooXXXXX.",
"oXXXXXXXooooooXXXXXXX.",
"oXXXXXXXXXXXXXXXXXXXX.",
"oXXXXXXXXXXXXXXXXXXXX.",
"o....................."
};
