/* XPM */
/* This file is a part of the NsCDE - Not so Common Desktop Environment */
static char *_2x22_media_playback_pause[] = {
/* columns rows colors chars-per-pixel */
"22 22 4 1 ",
"@ s foreground m white c #ffffffffffff",
". s bottomShadowColor m black c #4a38441b45a5",
"X s background m black c #91ff85f98900",
"o s topShadowColor m white c #cef4c998caf2",
/* pixels */
"oooooooooooooooooooooo",
"oXXXXXXXXXXXXXXXXXXXX.",
"oXXXXXXXXXXXXXXXXXXXX.",
"oXXXXXXXXXXXXXXXXXXXX.",
"oXXXXXXXXXXXXXXXXXXXX.",
"oXXXXXXXXXXXXXXXXXXXX.",
"oXXXXX@@@XXX@@@XXXXXX.",
"oXXXXX@@@XXX@@@XXXXXX.",
"oXXXXX@@@XXX@@@XXXXXX.",
"oXXXXX@@@XXX@@@XXXXXX.",
"oXXXXX@@@XXX@@@XXXXXX.",
"oXXXXX@@@XXX@@@XXXXXX.",
"oXXXXX@@@XXX@@@XXXXXX.",
"oXXXXX@@@XXX@@@XXXXXX.",
"oXXXXX@@@XXX@@@XXXXXX.",
"oXXXXX@@@XXX@@@XXXXXX.",
"oXXXXXXXXXXXXXXXXXXXX.",
"oXXXXXXXXXXXXXXXXXXXX.",
"oXXXXXXXXXXXXXXXXXXXX.",
"oXXXXXXXXXXXXXXXXXXXX.",
"oXXXXXXXXXXXXXXXXXXXX.",
"o....................."
};
