/* XPM */
/* This file is a part of the NsCDE - Not so Common Desktop Environment */
static char *_2x32_media_playlist_shuffle[] = {
/* columns rows colors chars-per-pixel */
"32 32 4 1 ",
"@ s foreground m white c #ffffffffffff",
". s bottomShadowColor m black c #4a38441b45a5",
"X s background m black c #91ff85f98900",
"o s topShadowColor m white c #cef4c998caf2",
/* pixels */
"oooooooooooooooooooooooooooooooo",
"ooooooooooooooooooooooooooooooo.",
"ooXXXXXXXXXXXXXXXXXXXXXXXXXXXX..",
"ooXXXXXXXXXXXXXXXXXXXXXXXXXXXX..",
"ooXXXXXXXXXXXXXXXXXXXXXXXXXXXX..",
"ooXXXXXXXXXXXXXXXXXXXX@@XXXXXX..",
"ooXXXXXXXXXXXXXXXXXXXX@@@XXXXX..",
"ooXXXXXXXXXXXXXXXXXXXX@@@@XXXX..",
"ooXX@@@@@@@@@XXXX@@@@@@@@@@XXX..",
"ooXX@@@@@@@@@@XX@@@@@@@@@@@@XX..",
"ooXX@@@@@@@@@@@@@@@@@@@@@@@XXX..",
"ooXX@@@@@@@@@@@@@@@@@@@@@@XXXX..",
"ooXXXXXXXXX@@@@@@@@XXX@@@XXXXX..",
"ooXXXXXXXXXX@@@@@@XXXX@@XXXXXX..",
"ooXXXXXXXXXXX@@@@@XXXXXXXXXXXX..",
"ooXXXXXXXXXXX@@@@@XXXXXXXXXXXX..",
"ooXXXXXXXXXXX@@@@@XXXXXXXXXXXX..",
"ooXXXXXXXXXXX@@@@@XXXXXXXXXXXX..",
"ooXXXXXXXXXX@@@@@@XXXX@@XXXXXX..",
"ooXXXXXXXXX@@@@@@@@XXX@@@XXXXX..",
"ooXX@@@@@@@@@@@@@@@@@@@@@@XXXX..",
"ooXX@@@@@@@@@@@@@@@@@@@@@@@XXX..",
"ooXX@@@@@@@@@@XX@@@@@@@@@@@@XX..",
"ooXX@@@@@@@@@XXXX@@@@@@@@@@XXX..",
"ooXXXXXXXXXXXXXXXXXXXX@@@@XXXX..",
"ooXXXXXXXXXXXXXXXXXXXX@@@XXXXX..",
"ooXXXXXXXXXXXXXXXXXXXX@@XXXXXX..",
"ooXXXXXXXXXXXXXXXXXXXXXXXXXXXX..",
"ooXXXXXXXXXXXXXXXXXXXXXXXXXXXX..",
"ooXXXXXXXXXXXXXXXXXXXXXXXXXXXX..",
"oo..............................",
"o..............................."
};
