/* XPM */
/* This file is a part of the NsCDE - Not so Common Desktop Environment */
static char *_2x32_media_playlist_repeat[] = {
/* columns rows colors chars-per-pixel */
"32 32 4 1 ",
"@ s foreground m white c #ffffffffffff",
". s bottomShadowColor m black c #4a38441b45a5",
"X s background m black c #91ff85f98900",
"o s topShadowColor m white c #cef4c998caf2",
/* pixels */
"oooooooooooooooooooooooooooooooo",
"ooooooooooooooooooooooooooooooo.",
"ooXXXXXXXXXXXXXXXXXXXXXXXXXXXX..",
"ooXXXXXXXXXXXXXXXXXXXXXXXXXXXX..",
"ooXXXXXXXXXXXXXXXXXXXXXXXXXXXX..",
"ooXXXXXXXXXXXXXXXXXXXXXXXXXXXX..",
"ooXXXX@@@@@@@@@@@@@@@@@@@@XXXX..",
"ooXXX@@@@@@@@@@@@@@@@@@@@@@XXX..",
"ooXX@@@@@@@@@@@@@@@@@@@@@@@@XX..",
"ooXX@@@@@@@@@@@@@@@@@@@@@@@@XX..",
"ooXX@@@@XXXXXXXXXXXXXXXX@@@@XX..",
"ooXX@@@XXXXXXXXXXXXXXXXXX@@@XX..",
"ooXX@@@XXXXXXXXXXXXXXXXXX@@@XX..",
"ooXX@@@XXXXXXXXXXXXXXXXXX@@@XX..",
"ooXX@@@XXXXXXXXXXXXXXXXXX@@@XX..",
"ooXX@@@XXXXXXXXXXXXXXXXXX@@@XX..",
"ooXX@@@XXXXXXXXXXXXX@XXXX@@@XX..",
"ooXX@@@XXXXXXXXXXXX@@XXXX@@@XX..",
"ooXX@@@@XXXXXXXXXX@@@XXX@@@@XX..",
"ooXX@@@@@@@@XXXXX@@@@@@@@@@@XX..",
"ooXX@@@@@@@@XXXX@@@@@@@@@@@@XX..",
"ooXXX@@@@@@@XXXX@@@@@@@@@@@XXX..",
"ooXXXX@@@@@@XXXXX@@@@@@@@@XXXX..",
"ooXXXXXXXXXXXXXXXX@@@XXXXXXXXX..",
"ooXXXXXXXXXXXXXXXXX@@XXXXXXXXX..",
"ooXXXXXXXXXXXXXXXXXX@XXXXXXXXX..",
"ooXXXXXXXXXXXXXXXXXXXXXXXXXXXX..",
"ooXXXXXXXXXXXXXXXXXXXXXXXXXXXX..",
"ooXXXXXXXXXXXXXXXXXXXXXXXXXXXX..",
"ooXXXXXXXXXXXXXXXXXXXXXXXXXXXX..",
"oo..............................",
"o..............................."
};
