/* XPM */
/* This file is a part of the NsCDE - Not so Common Desktop Environment */
static char *_4x24_media_playlist_shuffle[] = {
/* columns rows colors chars-per-pixel */
"24 24 4 1 ",
"@ s foreground m white c #ffffffffffff",
". s bottomShadowColor m black c #4a38441b45a5",
"X s background m black c #91ff85f98900",
"o s topShadowColor m white c #cef4c998caf2",
/* pixels */
"oooooooooooooooooooooooo",
"ooooooooooooooooooooooo.",
"ooXXXXXXXXXXXXXXXXXXXX..",
"ooXXXXXXXXXXXXXXXXXXXX..",
"ooXXXXXXXXXXXXXXX@XXXX..",
"ooXXXXXXXXXXXXXXX@@XXX..",
"ooX@@@@@@@XXX@@@@@@@XX..",
"ooX@@@@@@@@X@@@@@@@@@X..",
"ooX@@@@@@@@@@@@@@@@@XX..",
"ooXXXXXX@@@@@@XXX@@XXX..",
"ooXXXXXXX@@@@@XXX@XXXX..",
"ooXXXXXXXX@@@@XXXXXXXX..",
"ooXXXXXXXX@@@@XXXXXXXX..",
"ooXXXXXXXX@@@@XXX@XXXX..",
"ooXXXXXX@@@@@@XXX@@XXX..",
"ooX@@@@@@@@@@@@@@@@@XX..",
"ooX@@@@@@@@X@@@@@@@@@X..",
"ooX@@@@@@@XXX@@@@@@@XX..",
"ooXXXXXXXXXXXXXXX@@XXX..",
"ooXXXXXXXXXXXXXXX@XXXX..",
"ooXXXXXXXXXXXXXXXXXXXX..",
"ooXXXXXXXXXXXXXXXXXXXX..",
"oo......................",
"o......................."
};
