/* XPM */
/* This file is a part of the NsCDE - Not so Common Desktop Environment */
static char *_4x24_media_playlist_repeat[] = {
/* columns rows colors chars-per-pixel */
"24 24 4 1 ",
"@ s foreground m white c #ffffffffffff",
". s bottomShadowColor m black c #4a38441b45a5",
"X s background m black c #91ff85f98900",
"o s topShadowColor m white c #cef4c998caf2",
/* pixels */
"oooooooooooooooooooooooo",
"ooooooooooooooooooooooo.",
"ooXXXXXXXXXXXXXXXXXXXX..",
"ooXXXXXXXXXXXXXXXXXXXX..",
"ooXXXXXXXXXXXXXXXXXXXX..",
"ooXX@@@@@@@@@@@@@@@@XX..",
"ooX@@@@@@@@@@@@@@@@@@X..",
"ooX@@@@@@@@@@@@@@@@@@X..",
"ooX@@XXXXXXXXXXXXXX@@X..",
"ooX@@XXXXXXXXXXXXXX@@X..",
"ooX@@XXXXXXXXXXXXXX@@X..",
"ooX@@XXXXXXXXXXXXXX@@X..",
"ooX@@XXXXXXXXXX@XXX@@X..",
"ooX@@XXXXXXXXX@@XXX@@X..",
"ooX@@XXXXXXXX@@@@@@@@X..",
"ooX@@@@@@XXX@@@@@@@@@X..",
"ooX@@@@@@XXX@@@@@@@@XX..",
"ooXX@@@@@XXXX@@@XXXXXX..",
"ooXXXXXXXXXXXX@@XXXXXX..",
"ooXXXXXXXXXXXXX@XXXXXX..",
"ooXXXXXXXXXXXXXXXXXXXX..",
"ooXXXXXXXXXXXXXXXXXXXX..",
"oo......................",
"o......................."
};
