/* XPM */
/* This file is a part of the NsCDE - Not so Common Desktop Environment */
static char *format_text_italic[] = {
/* columns rows colors chars-per-pixel */
"24 24 4 1 ",
"@ s foreground m white c #ffffffffffff",
". s bottomShadowColor m black c #4a38441b45a5",
"X s background m black c #91ff85f98900",
"o s topShadowColor m white c #cef4c998caf2",
/* pixels */
"ooooooooooooooooooooooo.",
"oooooooooooooooooooooo..",
"ooXXXXXXXXXXXXXXXXXXXX..",
"ooXXXXXXXXXX@@XXXXXXXX..",
"ooXXXXXXXXXX@@XXXXXXXX..",
"ooXXXXXXXXXXXXXXXXXXXX..",
"ooXXXXXXXXXXXXXXXXXXXX..",
"ooXXXXXXXXXXXXXXXXXXXX..",
"ooXXXXXXXXX@@XXXXXXXXX..",
"ooXXXXXXXXX@@XXXXXXXXX..",
"ooXXXXXXXXX@@XXXXXXXXX..",
"ooXXXXXXXXX@@XXXXXXXXX..",
"ooXXXXXXXX@@XXXXXXXXXX..",
"ooXXXXXXXX@@XXXXXXXXXX..",
"ooXXXXXXXX@@XXXXXXXXXX..",
"ooXXXXXXXX@@XXXXXXXXXX..",
"ooXXXXXXXX@@XXXXXXXXXX..",
"ooXXXXXXX@@@XXXXXXXXXX..",
"ooXXXXXXX@@XXXXXXXXXXX..",
"ooXXXXXXX@@XXXXXXXXXXX..",
"ooXXXXXXX@@XXXXXXXXXXX..",
"ooXXXXXXXXXXXXXXXXXXXX..",
"o.......................",
"........................"
};
