/* XPM */
/* This file is a part of the NsCDE - Not so Common Desktop Environment */
static char *format_indent_less[] = {
/* columns rows colors chars-per-pixel */
"24 24 4 1 ",
"@ s foreground m white c #ffffffffffff",
". s bottomShadowColor m black c #4a38441b45a5",
"X s background m black c #91ff85f98900",
"o s topShadowColor m white c #cef4c998caf2",
/* pixels */
"ooooooooooooooooooooooo.",
"oXXXXXXXXXXXXXXXXXXXXXX.",
"oXXXXXXXXXXXXXXXXXXXXXX.",
"oXX@@@@@@@@@@@@@@@@@@XX.",
"oXX@@@@@@@@@@@@@@@@@@XX.",
"oXXXXXXXXXXXXXXXXXXXXXX.",
"oXXXXXXXXXXXXXXXXXXX@XX.",
"oXX@@@@@@@@@@XXXXX@@@XX.",
"oXX@@@@@@@@@@XXX@@@XXXX.",
"oXXXXXXXXXXXXX@@@XXXXXX.",
"oXXXXXXXXXXXXX@@@XXXXXX.",
"oXX@@@@@@@@@@XXX@@@XXXX.",
"oXX@@@@@@@@@@XXXXX@@@XX.",
"oXXXXXXXXXXXXXXXXXXX@XX.",
"oXXXXXXXXXXXXXXXXXXXXXX.",
"oXX@@@@@@@@@@@@@@@@@@XX.",
"oXX@@@@@@@@@@@@@@@@@@XX.",
"oXXXXXXXXXXXXXXXXXXXXXX.",
"oXXXXXXXXXXXXXXXXXXXXXX.",
"oXX@@@@@@@@@@@@@@@@@@XX.",
"oXX@@@@@@@@@@@@@@@@@@XX.",
"oXXXXXXXXXXXXXXXXXXXXXX.",
"oXXXXXXXXXXXXXXXXXXXXXX.",
"........................"
};
