/* XPM */
/* This file is a part of the NsCDE - Not so Common Desktop Environment */
static char *_4x24_format_justify_left[] = {
/* columns rows colors chars-per-pixel */
"24 24 4 1 ",
"@ s foreground m white c #ffffffffffff",
". s bottomShadowColor m black c #4a38441b45a5",
"X s background m black c #91ff85f98900",
"o s topShadowColor m white c #cef4c998caf2",
/* pixels */
"ooooooooooooooooooooooo.",
"oXXXXXXXXXXXXXXXXXXXXXX.",
"oXXXXXXXXXXXXXXXXXXXXXX.",
"oXX@@@@@@@@@@@@@@@@@@XX.",
"oXX@@@@@@@@@@@@@@@@@@XX.",
"oXXXXXXXXXXXXXXXXXXXXXX.",
"oXXXXXXXXXXXXXXXXXXXXXX.",
"oXX@@@@@@@@@@@@@@XXXXXX.",
"oXX@@@@@@@@@@@@@@XXXXXX.",
"oXXXXXXXXXXXXXXXXXXXXXX.",
"oXXXXXXXXXXXXXXXXXXXXXX.",
"oXX@@@@@@@@@@@XXXXXXXXX.",
"oXX@@@@@@@@@@@XXXXXXXXX.",
"oXXXXXXXXXXXXXXXXXXXXXX.",
"oXXXXXXXXXXXXXXXXXXXXXX.",
"oXX@@@@@@@@@@@@@@@XXXXX.",
"oXX@@@@@@@@@@@@@@@XXXXX.",
"oXXXXXXXXXXXXXXXXXXXXXX.",
"oXXXXXXXXXXXXXXXXXXXXXX.",
"oXX@@@@@@@@@@@@@@@@@XXX.",
"oXX@@@@@@@@@@@@@@@@@XXX.",
"oXXXXXXXXXXXXXXXXXXXXXX.",
"oXXXXXXXXXXXXXXXXXXXXXX.",
"........................"
};
