/* XPM */
/* This file is a part of the NsCDE - Not so Common Desktop Environment */
static char *format_text_underline[] = {
/* columns rows colors chars-per-pixel */
"24 24 4 1 ",
"@ s foreground m white c #ffffffffffff",
". s bottomShadowColor m black c #4a38441b45a5",
"X s background m black c #91ff85f98900",
"o s topShadowColor m white c #cef4c998caf2",
/* pixels */
"ooooooooooooooooooooooo.",
"oooooooooooooooooooooo..",
"ooXXXXXXXXXXXXXXXXXXXX..",
"ooXXXXXXXXXXXXXXXXXXXX..",
"ooXXXX@@XXXXXXXX@@XXXX..",
"ooXXXX@@XXXXXXXX@@XXXX..",
"ooXXXX@@XXXXXXXX@@XXXX..",
"ooXXXX@@XXXXXXXX@@XXXX..",
"ooXXXX@@XXXXXXXX@@XXXX..",
"ooXXXX@@XXXXXXXX@@XXXX..",
"ooXXXX@@XXXXXXXX@@XXXX..",
"ooXXXX@@XXXXXXXX@@XXXX..",
"ooXXXX@@XXXXXXXX@@XXXX..",
"ooXXXX@@XXXXXXXX@@XXXX..",
"ooXXXX@@XXXXXXXX@@XXXX..",
"ooXXXXX@@XXXXXX@@XXXXX..",
"ooXXXXX@@@XXXX@@@XXXXX..",
"ooXXXXXXX@@@@@@XXXXXXX..",
"ooXXXXXXXXXXXXXXXXXXXX..",
"ooXXXXXXXXXXXXXXXXXXXX..",
"ooXXX@@@@@@@@@@@@@@XXX..",
"ooXXXXXXXXXXXXXXXXXXXX..",
"o.......................",
"........................"
};
