/* XPM */
/* This file is a part of the NsCDE - Not so Common Desktop Environment */
static char *list_add_24x24[] = {
/* columns rows colors chars-per-pixel */
"24 24 4 1 ",
".      s None m None c None",
"@      s bottomShadowColor m black c #4a38441b45a5",
"X      s topShadowColor m black c #cef4c998caf2",
"o      s foreground m black c #ffffffffffff",
/* pixels */
"XXXXXXXXXXXXXXXXXXXXXX@@",
"XXXXXXXXXXXXXXXXXXXXXX@@",
"XX....................@@",
"XX....................@@",
"XX....................@@",
"XX........XooX........@@",
"XX........XooX........@@",
"XX........XooX........@@",
"XX........XooX........@@",
"XX.......XXooXX.......@@",
"XX...XXXXXooooXXXXX...@@",
"XX...oooooooooooooo...@@",
"XX...oooooooooooooo...@@",
"XX...XXXXXooooXXXXX...@@",
"XX.......XXooXX.......@@",
"XX........XooX........@@",
"XX........XooX........@@",
"XX........XooX........@@",
"XX........XooX........@@",
"XX....................@@",
"XX....................@@",
"XX....................@@",
"XX@@@@@@@@@@@@@@@@@@@@@@",
"XX@@@@@@@@@@@@@@@@@@@@@@"
};
