/* XPM */
/* This file is a part of the NsCDE - Not so Common Desktop Environment */
static char *list_remove_24x24[] = {
/* columns rows colors chars-per-pixel */
"24 24 4 1 ",
".      s None m None c None",
"@      s bottomShadowColor m black c #4a38441b45a5",
"X      s topShadowColor m black c #cef4c998caf2",
"o      s foreground m black c #ffffffffffff",
/* pixels */
"XXXXXXXXXXXXXXXXXXXXXXXX",
"XXXXXXXXXXXXXXXXXXXXXXXX",
"XX....................@@",
"XX....................@@",
"XX....................@@",
"XX....................@@",
"XX....................@@",
"XX....................@@",
"XX....................@@",
"XX....................@@",
"XX...oooooooooooooo...@@",
"XX...oooooooooooooo...@@",
"XX...oooooooooooooo...@@",
"XX...oooooooooooooo...@@",
"XX....................@@",
"XX....................@@",
"XX....................@@",
"XX....................@@",
"XX....................@@",
"XX....................@@",
"XX....................@@",
"XX....................@@",
"XX@@@@@@@@@@@@@@@@@@@@@@",
"XX@@@@@@@@@@@@@@@@@@@@@@"
};
