/* XPM */
/* This file is a part of the NsCDE - Not so Common Desktop Environment */
static char *_4x24_media_record[] = {
/* columns rows colors chars-per-pixel */
"24 24 4 1 ",
"@ c red",
". s bottomShadowColor m black c #4a38441b45a5",
"X s background m black c #91ff85f98900",
"o s topShadowColor m white c #cef4c998caf2",
/* pixels */
"oooooooooooooooooooooooo",
"ooooooooooooooooooooooo.",
"ooXXXXXXXXXXXXXXXXXXXX..",
"ooXXXXXXXXXXXXXXXXXXXX..",
"ooXXXXXXXooooooXXXXXXX..",
"ooXXXXXooo@@@@oooXXXXX..",
"ooXXXXoo@@@@@@@@ooXXXX..",
"ooXXXoo@@@@@@@@@@ooXXX..",
"ooXXXo@@@@@@@@@@@@oXXX..",
"ooXXoo@@@@@@@@@@@@ooXX..",
"ooXXo@@@@@@@@@@@@@@oXX..",
"ooXXo@@@@@@@@@@@@@@oXX..",
"ooXXo@@@@@@@@@@@@@@oXX..",
"ooXXo@@@@@@@@@@@@@@oXX..",
"ooXXoo@@@@@@@@@@@@ooXX..",
"ooXXXo@@@@@@@@@@@@oXXX..",
"ooXXXoo@@@@@@@@@@ooXXX..",
"ooXXXXoo@@@@@@@@ooXXXX..",
"ooXXXXXooo@@@@oooXXXXX..",
"ooXXXXXXXooooooXXXXXXX..",
"ooXXXXXXXXXXXXXXXXXXXX..",
"ooXXXXXXXXXXXXXXXXXXXX..",
"oo......................",
"o......................."
};
