/* XPM */
/* This file is a part of the NsCDE - Not so Common Desktop Environment */
static char *_4x24_media_skip_forward[] = {
/* columns rows colors chars-per-pixel */
"24 24 4 1 ",
"@ s foreground m white c #ffffffffffff",
". s bottomShadowColor m black c #4a38441b45a5",
"X s background m black c #91ff85f98900",
"o s topShadowColor m white c #cef4c998caf2",
/* pixels */
"oooooooooooooooooooooooo",
"ooooooooooooooooooooooo.",
"ooXXXXXXXXXXXXXXXXXXXX..",
"ooXXXXXXXXXXXXXXXXXXXX..",
"ooXXXXXXXXXXXXXXXXXXXX..",
"ooXXXXXXXXXXXXXXXX@@XX..",
"ooXX@XXXXXX@XXXXXX@@XX..",
"ooXX@@XXXXX@@XXXXX@@XX..",
"ooXX@@@XXXX@@@XXXX@@XX..",
"ooXX@@@@XXX@@@@XXX@@XX..",
"ooXX@@@@@XX@@@@@XX@@XX..",
"ooXX@@@@@@X@@@@@@X@@XX..",
"ooXX@@@@@@@@@@@@@@@@XX..",
"ooXX@@@@@@X@@@@@@X@@XX..",
"ooXX@@@@@XX@@@@@XX@@XX..",
"ooXX@@@@XXX@@@@XXX@@XX..",
"ooXX@@@XXXX@@@XXXX@@XX..",
"ooXX@@XXXXX@@XXXXX@@XX..",
"ooXX@XXXXXX@XXXXXX@@XX..",
"ooXXXXXXXXXXXXXXXX@@XX..",
"ooXXXXXXXXXXXXXXXXXXXX..",
"ooXXXXXXXXXXXXXXXXXXXX..",
"oo......................",
"o......................."
};
