/* XPM */
/* This file is a part of the NsCDE - Not so Common Desktop Environment */
static char *zoom_out_24x24[] = {
/* columns rows colors chars-per-pixel */
"24 24 4 1 ",
/* pixels */
".      s None m None c None",
"@      s bottomShadowColor m black c #4a38441b45a5",
"X      s topShadowColor m black c #cef4c998caf2",
"o      s foreground m black c #ffffffffffff",
"XXXXXXXXXXXXXXXXXXXXXXXX",
"X......................@",
"X......................@",
"X......................@",
"X......................@",
"X......................@",
"X......................@",
"X......................@",
"X......................@",
"X......................@",
"X......................@",
"X....oooooooooooooo....@",
"X....oooooooooooooo....@",
"X......................@",
"X......................@",
"X......................@",
"X......................@",
"X......................@",
"X......................@",
"X......................@",
"X......................@",
"X......................@",
"X......................@",
"X@@@@@@@@@@@@@@@@@@@@@@@"
};
