/* XPM */
/* This file is a part of the NsCDE - Not so Common Desktop Environment */
static char *zoom_original_24x24[] = {
/* columns rows colors chars-per-pixel */
"24 24 4 1 ",
".      s None m None c None",
"@      s bottomShadowColor m black c #4a38441b45a5",
"X      s topShadowColor m black c #cef4c998caf2",
"o      s foreground m black c #ffffffffffff",
/* pixels */
"XXXXXXXXXXXXXXXXXXXXXXXX",
"X......................@",
"X......................@",
"X......................@",
"X......................@",
"X......................@",
"X....ooo.........oo....@",
"X..ooooo......ooooo....@",
"X.....oo.........oo....@",
"X.....oo.........oo....@",
"X.....oo...oo....oo....@",
"X.....oo...oo....oo....@",
"X.....oo.........oo....@",
"X.....oo.........oo....@",
"X.....oo.........oo....@",
"X.....oo.........oo....@",
"X.....oo.........oo....@",
"X..ooooooo.oo.ooooooo..@",
"X..ooooooo.oo.ooooooo..@",
"X......................@",
"X......................@",
"X......................@",
"X......................@",
"X@@@@@@@@@@@@@@@@@@@@@@@"
};
