/* XPM */
/* This file is a part of the NsCDE - Not so Common Desktop Environment */
static char *_6x16_format_justify_left[] = {
/* columns rows colors chars-per-pixel */
"16 16 4 1 ",
"@ s foreground m white c #ffffffffffff",
". s bottomShadowColor m black c #4a38441b45a5",
"X s background m black c #91ff85f98900",
"o s topShadowColor m white c #cef4c998caf2",
/* pixels */
"ooooooooooooooo.",
"oXXXXXXXXXXXXXX.",
"oXXXXXXXXXXXXXX.",
"oX@@@@@@@@@@@@X.",
"oXXXXXXXXXXXXXX.",
"oXXXXXXXXXXXXXX.",
"oX@@@@@@@@XXXXX.",
"oXXXXXXXXXXXXXX.",
"oXXXXXXXXXXXXXX.",
"oX@@@@@@@@@@@XX.",
"oXXXXXXXXXXXXXX.",
"oXXXXXXXXXXXXXX.",
"oX@@@@@@@@@@XXX.",
"oXXXXXXXXXXXXXX.",
"oXXXXXXXXXXXXXX.",
"................"
};
