/* XPM */
/* This file is a part of the NsCDE - Not so Common Desktop Environment */
static char *_6x16_media_playback_pause[] = {
/* columns rows colors chars-per-pixel */
"16 16 4 1 ",
"@ s foreground m white c #ffffffffffff",
". s bottomShadowColor m black c #4a38441b45a5",
"X s background m black c #91ff85f98900",
"o s topShadowColor m white c #cef4c998caf2",
/* pixels */
"oooooooooooooooo",
"oXXXXXXXXXXXXXX.",
"oXXXXXXXXXXXXXX.",
"oXX@@@XXXX@@@XX.",
"oXX@@@XXXX@@@XX.",
"oXX@@@XXXX@@@XX.",
"oXX@@@XXXX@@@XX.",
"oXX@@@XXXX@@@XX.",
"oXX@@@XXXX@@@XX.",
"oXX@@@XXXX@@@XX.",
"oXX@@@XXXX@@@XX.",
"oXX@@@XXXX@@@XX.",
"oXX@@@XXXX@@@XX.",
"oXXXXXXXXXXXXXX.",
"oXXXXXXXXXXXXXX.",
"o..............."
};
