/* XPM */
/* This file is a part of the NsCDE - Not so Common Desktop Environment */
static char *open_menu[] = {
/* columns rows colors chars-per-pixel */
"16 16 4 1 ",
"@ s foreground m white c #ffffffffffff",
". s bottomShadowColor m black c #4a38441b45a5",
"X s background m black c #91ff85f98900",
"o s topShadowColor m white c #cef4c998caf2",
/* pixels */
"ooooooooooooooo.",
"oXXXXXXXXXXXXXX.",
"oXXXXXXXXXXXXXX.",
"oXX@@@@@@@@@@XX.",
"oXX@@@@@@@@@@XX.",
"oXXXXXXXXXXXXXX.",
"oXXXXXXXXXXXXXX.",
"oXX@@@@@@@@@@XX.",
"oXX@@@@@@@@@@XX.",
"oXXXXXXXXXXXXXX.",
"oXXXXXXXXXXXXXX.",
"oXX@@@@@@@@@@XX.",
"oXX@@@@@@@@@@XX.",
"oXXXXXXXXXXXXXX.",
"oXXXXXXXXXXXXXX.",
"................"
};
