/* XPM */
/* This file is a part of the NsCDE - Not so Common Desktop Environment */
static char *window_close[] = {
/* columns rows colors chars-per-pixel */
"16 16 3 1 ",
"X      s None m None c None",
"@      s bottomShadowColor m black c #4a38441b45a5",
".      s topShadowColor m black c #cef4c998caf2",
/* pixels */
"...............@",
".XXXXXXXXXXXXXX@",
".X..@XXXXXX..@X@",
".X...@XXXX...@X@",
".XX...@XX...@XX@",
".XXX...@...@XXX@",
".XXXX.....@XXXX@",
".XXXXX...@XXXXX@",
".XXXX.....@XXXX@",
".XXX...@...@XXX@",
".XX...@XX...@XX@",
".X...@XXXX...@X@",
".X..@XXXXXX..@X@",
".XXXXXXXXXXXXXX@",
".XXXXXXXXXXXXXX@",
".@@@@@@@@@@@@@@@"
};
